# xmcd CD database file
# Copyright (C) 1993-1998 Ti Kan
# 
# Track frame offsets:
#     150
#     12795
#     27975
#     47137
#     56362
#     73135
#     90637
#     104902
#     121029
#     142172
# 
# Disc length: 2031 seconds
# 
# Revision: 1
# Processed by: cddbd v1.4b41PL1 Copyright (c) Steve Scherf et al.
# Submitted via: DiscPlay 4.0.4
# 
DISCID=8b07ed0a
DTITLE=Various Artist - Play Ball!
DYEAR=1900
DGENRE=
TTITLE0=Take Me Out To The Ballgame
TTITLE1=Play Ball
TTITLE2=Boys of Summer
TTITLE3=Great Balls of Fire
TTITLE4=The Kid's A Natural
TTITLE5=Centerfield
TTITLE6=Gus
TTITLE7=Up To The Show
TTITLE8=(Never Leave Home) Without Your Glove
TTITLE9=Take Me Out To The Ballgame
EXTD=
EXTT0=
EXTT1=
EXTT2=
EXTT3=
EXTT4=
EXTT5=
EXTT6=
EXTT7=
EXTT8=
EXTT9=
PLAYORDER=
